<svg width="185" height="34" viewBox="0 0 185 34" fill="none" xmlns="http://www.w3.org/2000/svg">
<path d="M0.6 24.5V22.388C1.09067 22.3667 1.496 22.3027 1.816 22.196C2.15733 22.0893 2.41333 21.844 2.584 21.46C2.776 21.076 2.872 20.4573 2.872 19.604V7.348C2.872 6.772 2.88267 6.21733 2.904 5.684C2.94667 5.15067 2.97867 4.74533 3 4.468C2.65867 4.48933 2.232 4.51067 1.72 4.532C1.208 4.532 0.834667 4.54267 0.6 4.564V2.1H9.784V4.212C9.31467 4.23333 8.90933 4.29733 8.568 4.404C8.22667 4.51067 7.96 4.756 7.768 5.14C7.59733 5.50267 7.512 6.12133 7.512 6.996V19.252C7.512 19.828 7.50133 20.372 7.48 20.884C7.45867 21.396 7.42667 21.7907 7.384 22.068H11.672C12.9307 22.0467 13.912 21.6093 14.616 20.756C15.3413 19.8813 15.704 18.5693 15.704 16.82H17.848L17.656 24.5H0.6ZM25.9673 25.012C24.6873 25.012 23.6526 24.7667 22.8633 24.276C22.0953 23.7853 21.5299 23.0173 21.1673 21.972C20.8259 20.9267 20.6553 19.5827 20.6553 17.94V14.26C20.6553 13.876 20.6659 13.4387 20.6873 12.948C20.7086 12.436 20.7299 11.9453 20.7513 11.476C20.4099 11.4973 20.0046 11.5187 19.5353 11.54C19.0873 11.54 18.7459 11.5507 18.5113 11.572V9.14H18.8313C20.1539 9.14 21.1993 9.03333 21.9673 8.82C22.7353 8.60667 23.2259 8.39333 23.4393 8.18H25.1993V17.972C25.1993 19.3587 25.3806 20.3933 25.7433 21.076C26.1059 21.7373 26.6819 22.068 27.4713 22.068C28.0259 22.068 28.5806 21.9187 29.1353 21.62C29.7113 21.3 30.1806 20.9373 30.5433 20.532V14.26C30.5433 13.876 30.5539 13.4387 30.5753 12.948C30.5966 12.436 30.6286 11.9453 30.6713 11.476C30.3299 11.4973 29.9246 11.5187 29.4553 11.54C29.0073 11.54 28.6659 11.5507 28.4313 11.572V9.14H29.1993C30.2019 9.14 31.0873 9.03333 31.8553 8.82C32.6233 8.58533 33.1139 8.372 33.3273 8.18H35.0873V19.348C35.0873 19.6467 35.0766 20.0733 35.0553 20.628C35.0339 21.1613 35.0019 21.6733 34.9593 22.164C35.3006 22.1213 35.6739 22.1 36.0793 22.1C36.5059 22.0787 36.8259 22.068 37.0393 22.068V24.5H30.9593C30.9379 24.2227 30.9059 23.9453 30.8633 23.668C30.8419 23.3907 30.8099 23.1133 30.7673 22.836C30.1059 23.3907 29.3913 23.892 28.6233 24.34C27.8766 24.788 26.9913 25.012 25.9673 25.012ZM39.0925 24.5V22.452C39.5192 22.2813 39.9245 22.0147 40.3085 21.652C40.6925 21.2893 41.0978 20.8627 41.5245 20.372L44.3085 17.172C43.9672 16.7667 43.6152 16.3613 43.2525 15.956C42.9112 15.5293 42.5698 15.1133 42.2285 14.708C41.8872 14.3027 41.5352 13.8973 41.1725 13.492C40.9165 13.172 40.5858 12.756 40.1805 12.244C39.7752 11.7107 39.4978 11.252 39.3485 10.868L38.4845 10.932V8.5H45.5565V10.548C44.9592 10.5693 44.6925 10.7613 44.7565 11.124C44.8418 11.4653 45.0765 11.86 45.4605 12.308L46.9325 14.036L48.1805 12.564C48.4365 12.2653 48.6925 11.9667 48.9485 11.668C49.2045 11.3693 49.4712 11.0813 49.7485 10.804L48.1805 10.932V8.5H53.8125V10.548C53.3858 10.7187 52.9805 10.932 52.5965 11.188C52.2338 11.444 51.8925 11.732 51.5725 12.052C51.2525 12.3507 50.9325 12.7027 50.6125 13.108L48.4685 15.732L52.1805 20.052C52.4792 20.3933 52.7565 20.7347 53.0125 21.076C53.2685 21.396 53.5032 21.748 53.7165 22.132L54.8045 22.068V24.5H47.2525V22.452C47.9352 22.4093 48.2872 22.2493 48.3085 21.972C48.3512 21.6733 48.1805 21.3107 47.7965 20.884L45.8765 18.868L44.3725 20.66C44.2658 20.8093 44.0418 21.0653 43.7005 21.428C43.3805 21.7907 43.1245 22.0467 42.9325 22.196L44.4045 22.068V24.5H39.0925ZM74.7998 9.236C74.5864 7.23067 73.8824 5.67333 72.6878 4.564C71.5144 3.45467 69.9998 2.9 68.1438 2.9C67.0131 2.9 65.9464 3.14533 64.9438 3.636C63.9624 4.10533 63.0984 4.788 62.3518 5.684C61.6051 6.58 61.0184 7.65733 60.5918 8.916C60.1651 10.1747 59.9518 11.5933 59.9518 13.172C59.9518 15.1773 60.3358 16.948 61.1038 18.484C61.8718 20.02 62.9064 21.2147 64.2078 22.068C65.5091 22.9213 66.9491 23.348 68.5278 23.348C69.9144 23.348 71.2798 23.0387 72.6238 22.42C73.9678 21.78 75.0664 20.8627 75.9198 19.668L76.7518 20.34C75.8344 21.5987 74.8424 22.5693 73.7758 23.252C72.7091 23.9347 71.6424 24.3933 70.5758 24.628C69.5304 24.884 68.5704 25.012 67.6958 25.012C66.0958 25.012 64.6238 24.724 63.2798 24.148C61.9571 23.572 60.8051 22.772 59.8238 21.748C58.8638 20.7027 58.1171 19.4973 57.5838 18.132C57.0718 16.7453 56.8158 15.252 56.8158 13.652C56.8158 12.1373 57.0398 10.6653 57.4878 9.236C57.9571 7.80667 58.6504 6.516 59.5677 5.364C60.4851 4.212 61.6371 3.29467 63.0238 2.612C64.4318 1.92933 66.0638 1.588 67.9198 1.588C69.1144 1.588 70.2451 1.748 71.3118 2.068C72.3784 2.388 73.4024 2.87867 74.3838 3.54L74.2238 1.812H75.9518V9.236H74.7998ZM89.3988 23.54C90.0601 23.54 90.5188 23.38 90.7748 23.06C91.0308 22.7187 91.1801 22.26 91.2228 21.684C91.2654 21.0867 91.2868 20.404 91.2868 19.636V15.156C91.2868 13.3213 90.9881 11.9453 90.3908 11.028C89.8148 10.1107 88.8974 9.66267 87.6388 9.684C86.8494 9.70533 86.0708 9.89733 85.3028 10.26C84.5561 10.6227 83.9481 11.092 83.4788 11.668V21.108C83.4788 21.5347 83.4681 21.9187 83.4468 22.26C83.4254 22.58 83.3828 22.9213 83.3188 23.284C83.6601 23.2627 83.9908 23.252 84.3108 23.252C84.6521 23.2307 84.9934 23.2093 85.3348 23.188V24.5H78.8068V23.54C79.4681 23.54 79.9268 23.38 80.1828 23.06C80.4388 22.7187 80.5881 22.26 80.6308 21.684C80.6948 21.0867 80.7268 20.404 80.7268 19.636V4.5C80.7268 4.15867 80.7268 3.83867 80.7268 3.54C80.7481 3.22 80.7801 2.84667 80.8228 2.42C80.4388 2.44133 80.0548 2.46267 79.6708 2.484C79.3081 2.50533 78.9348 2.52667 78.5508 2.548V1.204C79.4894 1.204 80.2148 1.16133 80.7268 1.076C81.2601 0.990665 81.6548 0.883998 81.9108 0.755999C82.1881 0.627999 82.4014 0.489332 82.5508 0.339998H83.4788V10.1C83.9481 9.69467 84.4708 9.34267 85.0468 9.044C85.6441 8.724 86.2521 8.468 86.8708 8.276C87.5108 8.084 88.1294 7.988 88.7268 7.988C90.5828 7.988 91.9161 8.57467 92.7268 9.748C93.5588 10.9 93.9854 12.7027 94.0068 15.156L94.0388 21.108C94.0388 21.5347 94.0281 21.9187 94.0068 22.26C94.0068 22.58 93.9748 22.9213 93.9108 23.284C94.2521 23.2627 94.5828 23.252 94.9028 23.252C95.2441 23.2307 95.5854 23.2093 95.9268 23.188V24.5H89.3988V23.54ZM108.011 24.5C107.947 24.1373 107.904 23.8173 107.883 23.54C107.862 23.2627 107.83 22.9747 107.787 22.676C107.062 23.4013 106.272 23.9773 105.419 24.404C104.587 24.8093 103.702 25.012 102.763 25.012C101.142 25.012 99.9363 24.6493 99.147 23.924C98.3577 23.1773 97.963 22.2707 97.963 21.204C97.963 20.2227 98.2617 19.38 98.859 18.676C99.4777 17.9507 100.267 17.364 101.227 16.916C102.208 16.4467 103.264 16.1053 104.395 15.892C105.547 15.6573 106.656 15.5507 107.723 15.572V13.588C107.723 12.8413 107.659 12.1373 107.531 11.476C107.403 10.8147 107.126 10.2707 106.699 9.844C106.272 9.41733 105.59 9.19333 104.651 9.172C104.032 9.15067 103.392 9.268 102.731 9.524C102.091 9.78 101.622 10.2173 101.323 10.836C101.494 11.0067 101.6 11.2093 101.643 11.444C101.707 11.6573 101.739 11.86 101.739 12.052C101.739 12.308 101.632 12.6067 101.419 12.948C101.206 13.268 100.832 13.4173 100.299 13.396C99.851 13.396 99.5097 13.2467 99.275 12.948C99.0403 12.628 98.923 12.2547 98.923 11.828C98.923 11.1027 99.1897 10.452 99.723 9.876C100.278 9.3 101.035 8.84133 101.995 8.5C102.955 8.15867 104.043 7.988 105.259 7.988C107.051 7.988 108.374 8.468 109.227 9.428C110.08 10.3667 110.496 11.86 110.475 13.908C110.475 14.6973 110.475 15.4973 110.475 16.308C110.475 17.0973 110.464 17.8973 110.443 18.708C110.443 19.4973 110.443 20.2973 110.443 21.108C110.443 21.4493 110.432 21.7907 110.411 22.132C110.39 22.4733 110.358 22.8573 110.315 23.284C110.699 23.2627 111.072 23.2413 111.435 23.22C111.819 23.1987 112.203 23.1773 112.587 23.156V24.5H108.011ZM107.723 16.66C106.998 16.6813 106.23 16.7773 105.419 16.948C104.63 17.0973 103.894 17.332 103.211 17.652C102.55 17.972 102.006 18.3987 101.579 18.932C101.174 19.444 100.982 20.0733 101.003 20.82C101.046 21.6093 101.302 22.2067 101.771 22.612C102.262 22.996 102.838 23.188 103.499 23.188C104.374 23.188 105.131 23.028 105.771 22.708C106.432 22.3667 107.083 21.8973 107.723 21.3C107.702 21.0653 107.691 20.8093 107.691 20.532C107.691 20.2547 107.691 19.9667 107.691 19.668C107.691 19.5613 107.691 19.22 107.691 18.644C107.712 18.068 107.723 17.4067 107.723 16.66ZM123.487 0.179998C124.276 0.158665 124.884 0.297332 125.311 0.595999C125.738 0.873332 125.951 1.28933 125.951 1.844C125.951 1.99333 125.908 2.17467 125.823 2.388C125.759 2.60133 125.631 2.78267 125.439 2.932C125.247 3.06 124.991 3.124 124.671 3.124C124.266 3.124 123.946 2.97467 123.711 2.676C123.476 2.37733 123.37 1.99333 123.391 1.524C123.327 1.48133 123.199 1.44933 123.007 1.428C122.815 1.38533 122.634 1.37466 122.463 1.396C121.951 1.43867 121.524 1.652 121.183 2.036C120.863 2.39867 120.596 2.9 120.383 3.54C120.17 4.15867 119.999 4.89467 119.871 5.748C119.743 6.58 119.636 7.49733 119.551 8.5H124.095L123.999 9.748L119.455 9.812C119.434 10.3667 119.402 10.932 119.359 11.508C119.338 12.084 119.306 12.6813 119.263 13.3C119.242 13.8973 119.21 14.5053 119.167 15.124C119.124 15.7213 119.071 16.3293 119.007 16.948C118.858 18.5053 118.719 20.0627 118.591 21.62C118.463 23.156 118.271 24.6173 118.015 26.004C117.78 27.3907 117.428 28.6173 116.959 29.684C116.49 30.772 115.839 31.6253 115.007 32.244C114.196 32.8627 113.151 33.172 111.871 33.172C111.06 33.172 110.442 33.0227 110.015 32.724C109.588 32.4467 109.375 32.0413 109.375 31.508C109.375 31.3373 109.418 31.1453 109.503 30.932C109.588 30.74 109.727 30.5587 109.919 30.388C110.111 30.2387 110.367 30.1747 110.687 30.196C111.071 30.2173 111.38 30.356 111.615 30.612C111.828 30.8893 111.935 31.2413 111.935 31.668C112.17 31.8387 112.479 31.924 112.863 31.924C113.61 31.924 114.175 31.5293 114.559 30.74C114.964 29.9507 115.263 28.852 115.455 27.444C115.647 26.0573 115.796 24.4467 115.903 22.612C116.031 20.756 116.191 18.772 116.383 16.66C116.426 16.084 116.468 15.508 116.511 14.932C116.554 14.356 116.596 13.78 116.639 13.204C116.682 12.628 116.724 12.0627 116.767 11.508C116.831 10.932 116.895 10.3773 116.959 9.844L114.143 9.876L114.303 8.5H117.119C117.354 6.94267 117.695 5.54533 118.143 4.308C118.591 3.07067 119.242 2.07867 120.095 1.332C120.948 0.585332 122.079 0.201331 123.487 0.179998ZM133.893 0.179998C134.683 0.158665 135.291 0.297332 135.717 0.595999C136.144 0.873332 136.357 1.28933 136.357 1.844C136.357 1.99333 136.315 2.17467 136.229 2.388C136.165 2.60133 136.037 2.78267 135.845 2.932C135.653 3.06 135.397 3.124 135.077 3.124C134.672 3.124 134.352 2.97467 134.117 2.676C133.883 2.37733 133.776 1.99333 133.797 1.524C133.733 1.48133 133.605 1.44933 133.413 1.428C133.221 1.38533 133.04 1.37466 132.869 1.396C132.357 1.43867 131.931 1.652 131.589 2.036C131.269 2.39867 131.003 2.9 130.789 3.54C130.576 4.15867 130.405 4.89467 130.277 5.748C130.149 6.58 130.043 7.49733 129.957 8.5H134.501L134.405 9.748L129.861 9.812C129.84 10.3667 129.808 10.932 129.765 11.508C129.744 12.084 129.712 12.6813 129.669 13.3C129.648 13.8973 129.616 14.5053 129.573 15.124C129.531 15.7213 129.477 16.3293 129.413 16.948C129.264 18.5053 129.125 20.0627 128.997 21.62C128.869 23.156 128.677 24.6173 128.421 26.004C128.187 27.3907 127.835 28.6173 127.365 29.684C126.896 30.772 126.245 31.6253 125.413 32.244C124.603 32.8627 123.557 33.172 122.277 33.172C121.467 33.172 120.848 33.0227 120.421 32.724C119.995 32.4467 119.781 32.0413 119.781 31.508C119.781 31.3373 119.824 31.1453 119.909 30.932C119.995 30.74 120.133 30.5587 120.325 30.388C120.517 30.2387 120.773 30.1747 121.093 30.196C121.477 30.2173 121.787 30.356 122.021 30.612C122.235 30.8893 122.341 31.2413 122.341 31.668C122.576 31.8387 122.885 31.924 123.269 31.924C124.016 31.924 124.581 31.5293 124.965 30.74C125.371 29.9507 125.669 28.852 125.861 27.444C126.053 26.0573 126.203 24.4467 126.309 22.612C126.437 20.756 126.597 18.772 126.789 16.66C126.832 16.084 126.875 15.508 126.917 14.932C126.96 14.356 127.003 13.78 127.045 13.204C127.088 12.628 127.131 12.0627 127.173 11.508C127.237 10.932 127.301 10.3773 127.365 9.844L124.549 9.876L124.709 8.5H127.525C127.76 6.94267 128.101 5.54533 128.549 4.308C128.997 3.07067 129.648 2.07867 130.501 1.332C131.355 0.585332 132.485 0.201331 133.893 0.179998ZM143.34 25.012C141.868 25.012 140.534 24.6707 139.34 23.988C138.166 23.284 137.238 22.3027 136.556 21.044C135.873 19.764 135.532 18.26 135.532 16.532C135.532 15.0387 135.862 13.6413 136.524 12.34C137.206 11.0387 138.156 9.99333 139.372 9.204C140.588 8.39333 141.996 7.988 143.595 7.988C144.492 7.988 145.324 8.13733 146.092 8.436C146.881 8.71333 147.574 9.15067 148.172 9.748C148.769 10.324 149.238 11.06 149.58 11.956C149.921 12.8307 150.092 13.8653 150.092 15.06L138.828 15.252C138.828 16.8733 138.998 18.3027 139.34 19.54C139.702 20.756 140.278 21.7053 141.068 22.388C141.857 23.0493 142.87 23.38 144.108 23.38C144.769 23.38 145.441 23.2627 146.124 23.028C146.828 22.7933 147.478 22.4733 148.076 22.068C148.673 21.6627 149.153 21.2147 149.516 20.724L150.284 21.364C149.708 22.26 149.014 22.9747 148.204 23.508C147.393 24.0413 146.561 24.4253 145.708 24.66C144.854 24.8947 144.065 25.012 143.34 25.012ZM138.924 13.908H147.084C147.084 13.14 146.966 12.404 146.732 11.7C146.518 10.9747 146.156 10.388 145.644 9.94C145.132 9.47067 144.46 9.236 143.628 9.236C142.39 9.236 141.356 9.60933 140.524 10.356C139.713 11.0813 139.18 12.2653 138.924 13.908ZM159.691 25.012C158.539 25.012 157.569 24.7987 156.779 24.372C156.011 23.9453 155.425 23.22 155.019 22.196C154.635 21.172 154.443 19.7853 154.443 18.036V12.34C154.443 11.9987 154.443 11.6573 154.443 11.316C154.465 10.9747 154.507 10.6227 154.571 10.26C154.209 10.2813 153.835 10.3027 153.451 10.324C153.089 10.324 152.726 10.3347 152.363 10.356V9.044H153.355C154.273 9.044 154.934 8.95867 155.339 8.788C155.766 8.596 156.097 8.39333 156.331 8.18H157.259V17.94C157.259 19.7747 157.515 21.1507 158.027 22.068C158.561 22.964 159.457 23.4013 160.715 23.38C161.526 23.3587 162.294 23.1133 163.019 22.644C163.766 22.1533 164.363 21.5773 164.811 20.916V12.692C164.811 12.18 164.822 11.7427 164.843 11.38C164.865 10.996 164.907 10.6227 164.971 10.26C164.587 10.2813 164.203 10.3027 163.819 10.324C163.435 10.324 163.051 10.3347 162.667 10.356V9.044H163.659C164.577 9.044 165.238 8.95867 165.643 8.788C166.07 8.596 166.401 8.39333 166.635 8.18H167.563L167.531 20.276C167.531 20.6173 167.521 21.0973 167.499 21.716C167.478 22.3347 167.446 22.8573 167.403 23.284C167.787 23.2627 168.171 23.2413 168.555 23.22C168.939 23.1987 169.323 23.1773 169.707 23.156V24.5H165.131C165.067 24.1373 165.014 23.796 164.971 23.476C164.95 23.156 164.929 22.8573 164.907 22.58C164.246 23.2413 163.446 23.8173 162.507 24.308C161.569 24.7773 160.63 25.012 159.691 25.012ZM172.033 23.54C172.694 23.54 173.153 23.38 173.409 23.06C173.665 22.7187 173.814 22.26 173.857 21.684C173.9 21.0867 173.921 20.404 173.921 19.636V12.34C173.921 11.9987 173.921 11.6573 173.921 11.316C173.942 10.9747 173.985 10.6227 174.049 10.26C173.665 10.2813 173.281 10.3027 172.897 10.324C172.534 10.324 172.161 10.3347 171.777 10.356V9.044H172.769C173.686 9.044 174.316 8.95867 174.657 8.788C175.02 8.596 175.318 8.39333 175.553 8.18H176.481C176.524 8.52133 176.556 8.948 176.577 9.46C176.598 9.95067 176.62 10.58 176.641 11.348C176.961 10.8147 177.398 10.292 177.953 9.78C178.508 9.268 179.126 8.84133 179.809 8.5C180.513 8.15867 181.249 7.988 182.017 7.988C182.614 7.988 183.137 8.148 183.585 8.468C184.033 8.788 184.257 9.3 184.257 10.004C184.257 10.1747 184.204 10.388 184.097 10.644C183.99 10.8787 183.82 11.092 183.585 11.284C183.35 11.4547 183.041 11.54 182.657 11.54C182.188 11.5187 181.814 11.3373 181.537 10.996C181.26 10.6333 181.153 10.2173 181.217 9.748C180.684 9.72667 180.129 9.86533 179.553 10.164C178.998 10.4627 178.476 10.8787 177.985 11.412C177.494 11.924 177.057 12.532 176.673 13.236L176.705 21.108C176.705 21.5347 176.694 21.9187 176.673 22.26C176.673 22.58 176.641 22.9213 176.577 23.284C176.918 23.2627 177.249 23.252 177.569 23.252C177.91 23.2307 178.252 23.2093 178.593 23.188V24.5H172.033V23.54Z" fill="#A55C30"/>
</svg>
