<svg width="31" height="29" viewBox="0 0 31 29" fill="none" xmlns="http://www.w3.org/2000/svg">
<path fill-rule="evenodd" clip-rule="evenodd" d="M15.3974 24.5069L8.9959 27.743C7.64764 28.4246 5.98004 27.9262 5.27122 26.6297C4.98896 26.1135 4.89156 25.5221 4.9941 24.9473L6.21668 18.093L1.03774 13.2388C-0.0530301 12.2164 -0.0753492 10.5374 0.987886 9.48851C1.41127 9.07085 1.96603 8.79905 2.56629 8.71518L9.72341 7.71516L12.9242 1.47894C13.5983 0.165499 15.2521 -0.37377 16.618 0.274454C17.162 0.532581 17.6022 0.955923 17.8707 1.47894L21.0714 7.71516L28.2286 8.71518C29.736 8.9258 30.7804 10.2716 30.5614 11.721C30.4741 12.2982 30.1915 12.8317 29.7571 13.2388L24.5782 18.093L25.8008 24.9473C26.0583 26.3909 25.0499 27.7619 23.5486 28.0095C22.9508 28.1081 22.3358 28.0144 21.799 27.743L15.3974 24.5069Z" fill="#F8D7A4"/>
</svg>
